<svg xmlns="http://www.w3.org/2000/svg" viewBox="0 0 255.53 512"><defs><style>.cls-1{fill:#333;}</style></defs><title>アセット 1</title><g id="レイヤー_2" data-name="レイヤー 2"><g id="_2" data-name="2"><path class="cls-1" d="M191.63,169.05V132a13.42,13.42,0,0,0-13.42-13.42H161.72V93.32h14.91L190.26,68.9v-32a134.75,134.75,0,0,0,23-2.37,87.6,87.6,0,0,0,10.52-2.78V0a45,45,0,0,1-16.21,6.22A119.28,119.28,0,0,1,184.47,8.1c-10.67,0-22.61-.83-35.23-1.7s-25.95-1.76-39.56-1.76c-18.94,0-38.51,1.72-57.49,8.13A113.66,113.66,0,0,0,0,48.68l22.23,18.4A86.48,86.48,0,0,1,40.69,50.26,92.49,92.49,0,0,1,72.74,37a138.87,138.87,0,0,1,16.42-2.54V68.9l13.63,24.42H117.7v25.23H100.93A13.42,13.42,0,0,0,87.51,132v37.22A115.81,115.81,0,0,0,23.89,272.58v225A14.43,14.43,0,0,0,38.33,512H241.1a14.43,14.43,0,0,0,14.43-14.44v-225A115.79,115.79,0,0,0,191.63,169.05Z"/></g></g></svg>