<svg xmlns="http://www.w3.org/2000/svg" viewBox="0 0 188.85 512"><defs><style>.cls-1{fill:#333;}</style></defs><title>アセット 1</title><g id="レイヤー_2" data-name="レイヤー 2"><g id="_2" data-name="2"><path class="cls-1" d="M174.23,396.06c-8.58-15-14-57.45,1.47-100.87A228.72,228.72,0,0,0,184.59,265c4.58-22.29,3.33-42.62-4.05-65.91C176.09,185,169.38,170,160.05,153.33c-12-21.38-25.25-84.18-21.14-92,4.78-6.38,2.91-15.6,0-23.81A20.74,20.74,0,0,0,126.74,0H62.11A20.75,20.75,0,0,0,50,37.57C47,45.78,45.15,55,49.87,61.27c4.19,7.89-9.1,70.68-21.06,92.06-9.34,16.7-16,31.67-20.5,45.75-7.38,23.3-8.63,43.63-4,65.92a223.51,223.51,0,0,0,8.9,30.2c15.5,43.41,10,85.85,1.45,100.86s-29.5,77.41,2.68,98.46C41,510,66,512,85.09,512l9.34-.06,9.34.06c19.11,0,44.07-2,67.78-17.48C203.72,473.48,182.75,411,174.23,396.06ZM67.82,50.65a43.77,43.77,0,0,1,2.54-8.07H118.5a47.24,47.24,0,0,1,2.56,8c-3.87,6.35-6.14,18.77,1.92,55.32,1.17,5.31,2.54,10.89,4,16.4H61.86c1.48-5.51,2.84-11.09,4-16.39C73.92,69.48,71.67,57,67.82,50.65Z"/></g></g></svg>