<svg xmlns="http://www.w3.org/2000/svg" viewBox="0 0 185.31 461.14"><defs><style>.cls-1{fill:#333;}</style></defs><title>アセット 1</title><g id="レイヤー_2" data-name="レイヤー 2"><g id="_2" data-name="2"><path class="cls-1" d="M134.19,118.19l.11-23.74C134.3,87,129.5,81,123.57,81H106.41V60.47h9.66l8.83-15.82V23.9a87.87,87.87,0,0,0,14.87-1.54,56.14,56.14,0,0,0,6.82-1.8V0a29.25,29.25,0,0,1-10.51,4,77.35,77.35,0,0,1-14.93,1.22c-6.92,0-14.65-.54-22.83-1.1S81.5,3,72.68,3c-12.27,0-25,1.11-37.25,5.26A73.87,73.87,0,0,0,1.61,31.54L16,43.47a55.73,55.73,0,0,1,12-10.9A59.89,59.89,0,0,1,48.75,24a90.15,90.15,0,0,1,10.64-1.65V44.65l8.83,15.82h9.66V81H61.75C55.82,81,51,87,51,94.45l-.11,23.88C20.71,137.42,0,176.53,0,221.72v225c0,8,5.17,14.44,11.55,14.44H173.76c6.38,0,11.55-6.47,11.55-14.44v-225C185.31,176.42,164.5,137.22,134.19,118.19Z"/></g></g></svg>