<svg xmlns="http://www.w3.org/2000/svg" viewBox="0 0 256 256"><defs><style>.cls-1{fill:#333;}.cls-2{fill:#c75098;}</style></defs><title>アセット 1</title><g id="レイヤー_2" data-name="レイヤー 2"><g id="レイヤー_1-2" data-name="レイヤー 1"><rect class="cls-1" x="128" width="128" height="256"/><rect class="cls-2" width="128" height="256"/><g id="_2" data-name=" 2"><path class="cls-1" d="M86.81,78.09l0-10.54c0-3.31-2.13-6-4.76-6H74.48V52.45h4.29l3.92-7V36.21a38.48,38.48,0,0,0,6.6-.68,24.11,24.11,0,0,0,3-.8V25.6a13,13,0,0,1-4.67,1.78,35,35,0,0,1-6.63.54c-3.07,0-6.5-.24-10.14-.49s-7.47-.5-11.38-.5A51.35,51.35,0,0,0,43,29.27a32.72,32.72,0,0,0-15,10.34l6.39,5.29a24.81,24.81,0,0,1,5.33-4.84,26.59,26.59,0,0,1,9.21-3.8,39.73,39.73,0,0,1,4.73-.73v9.9l3.92,7h4.29v9.12H54.64c-2.63,0-4.77,2.67-4.77,6l0,10.6c-13.4,8.48-22.6,25.85-22.6,45.92V224c0,3.55,2.3,6.41,5.13,6.41h72c2.83,0,5.13-2.87,5.13-6.41V124.07C109.52,104,100.28,86.54,86.81,78.09Z"/></g><g id="_2-2" data-name=" 2"><path class="cls-2" d="M206.08,78.09l0-10.54c0-3.31-2.14-6-4.77-6h-7.62V52.45H198l3.92-7V36.21a38.37,38.37,0,0,0,6.6-.68,24.11,24.11,0,0,0,3-.8V25.6a13,13,0,0,1-4.66,1.78,35.11,35.11,0,0,1-6.63.54c-3.08,0-6.51-.24-10.14-.49s-7.47-.5-11.39-.5a51.35,51.35,0,0,0-16.54,2.34,32.77,32.77,0,0,0-15,10.34l6.39,5.29a25,25,0,0,1,5.33-4.84,26.59,26.59,0,0,1,9.21-3.8,39.73,39.73,0,0,1,4.73-.73v9.9l3.92,7h4.29v9.12h-7.16c-2.64,0-4.78,2.67-4.78,6l0,10.6c-13.4,8.48-22.6,25.85-22.6,45.92V224c0,3.55,2.3,6.41,5.13,6.41h72c2.83,0,5.13-2.87,5.13-6.41V124.07C228.78,104,219.54,86.54,206.08,78.09Z"/></g></g></g></svg>